<svg width="27" height="27" viewBox="0 0 27 27" fill="none" xmlns="http://www.w3.org/2000/svg">
<path fill-rule="evenodd" clip-rule="evenodd" d="M10.6047 5.12816C6.3691 7.84841 4.01616 11.0142 3.54535 14.6271C2.81241 20.2504 7.84116 23.0027 10.3893 20.53C12.9374 18.0567 11.4102 14.9179 9.56523 14.0595C7.72023 13.2017 6.59185 13.5004 6.78873 12.3535C6.9856 11.2071 9.61023 8.02784 11.9165 6.54734C11.9982 6.47785 12.0503 6.37979 12.0623 6.27318C12.0742 6.16656 12.045 6.05942 11.9806 5.97359L11.4102 5.23166C11.1627 4.90991 10.9254 4.92228 10.6047 5.12759M21.7569 5.12816C17.5212 7.84841 15.1677 11.0147 14.6975 14.6271C13.9645 20.2504 18.9933 23.0027 21.5414 20.53C24.0895 18.0567 22.5624 14.9179 20.7168 14.0595C18.8718 13.2017 17.7434 13.5004 17.9403 12.3535C18.1372 11.2071 20.7624 8.02784 23.0686 6.54734C23.1502 6.47777 23.2023 6.37968 23.2141 6.27306C23.2259 6.16645 23.1966 6.05935 23.1322 5.97359L22.5618 5.23166C22.3143 4.90991 22.0769 4.92228 21.7569 5.12759" fill="black"/>
</svg>
